<svg xmlns="http://www.w3.org/2000/svg" width="32" height="32" viewBox="0 0 32 32">  <defs>    <radialGradient id="a" cy="0%" r="100%" fx="50%" fy="0%" gradientTransform="matrix(0 1 -1.15185 0 .5 -.5)">      <stop stop-color="#20C6B7" offset="0%"/>      <stop stop-color="#4D9ABF" offset="100%"/>    </radialGradient>  </defs>  <path fill="url(#a)" fill-rule="evenodd" d="M22.980623,11.6262377 C22.8717107,11.5051306 22.7355704,11.3974798 22.5722021,11.3167418 C22.5585881,11.3167418 22.544974,11.2898291 22.53136,11.2763727 L23.1712194,7.36057661 C23.1712194,7.33366392 23.1848334,7.32020758 23.1984475,7.32020758 L23.2120615,7.32020758 C23.2120615,7.32020758 23.2256755,7.32020758 23.2392896,7.33366392 L26.166306,10.2267779 C26.17992,10.2402343 26.17992,10.2536906 26.17992,10.2671469 C26.17992,10.2806033 26.166306,10.2940596 26.1526919,10.307516 L23.0214651,11.639694 L23.007851,11.639694 C22.994237,11.639694 22.994237,11.639694 22.980623,11.6262377 Z M16.3505736,9.4597381 C16.3233453,9.19061274 16.2280463,8.92148738 16.0782906,8.69273083 C16.0646765,8.67927456 16.0646765,8.65236202 16.0782906,8.62544949 L19.359301,3.53898022 C19.359301,3.52552395 19.3729151,3.51206768 19.3865293,3.51206768 C19.4001434,3.51206768 19.4001434,3.51206768 19.4137576,3.52552395 L22.3271858,6.41862155 C22.3408,6.43207782 22.3408,6.44553409 22.3408,6.45899035 L21.5784076,11.1821404 C21.5784076,11.2090529 21.5647934,11.2225092 21.5511793,11.2225092 C21.3741953,11.2763343 21.2108255,11.3570719 21.074684,11.464722 C21.074684,11.4781783 21.0610698,11.4781783 21.0338415,11.4781783 L16.3778019,9.5001069 C16.3641878,9.48665063 16.3505736,9.47319437 16.3505736,9.4597381 Z M26.9831907,11.0207669 L31.9795788,15.972664 C32.0068071,15.9861202 32.0068071,16.0264889 31.9795788,16.0264889 L31.9523505,16.0534014 C31.9523505,16.0668577 31.9387364,16.0668577 31.9115081,16.0668577 L23.5524283,12.527866 C23.5388141,12.527866 23.5252,12.5009535 23.5252,12.4874973 C23.5252,12.474041 23.5388141,12.4605848 23.5524283,12.4471286 L26.9559624,11.0073107 C26.9559624,11.0073107 26.9695765,11.0073107 26.9831907,11.0207669 Z M23.1304363,13.3890881 L31.1491858,16.7800761 C31.1628,16.7935324 31.1628,16.8069887 31.1628,16.820445 C31.1628,16.8339013 31.1628,16.8473576 31.1491858,16.8608139 L26.7109645,21.2610245 C26.7109645,21.2744808 26.6973503,21.2744808 26.670122,21.2744808 L21.8234754,20.2652582 C21.796247,20.2652582 21.7826329,20.2518019 21.7826329,20.2248893 C21.7417903,19.8481128 21.564806,19.5117053 21.2652942,19.2829481 C21.25168,19.2694918 21.25168,19.2560355 21.25168,19.2425792 L22.1093731,13.9811653 C22.1093731,13.9542527 22.1366014,13.9407964 22.1502156,13.9407964 C22.5314125,13.8869712 22.8581527,13.698583 23.0759796,13.4025444 C23.0895937,13.3890881 23.1032079,13.3890881 23.1304363,13.3890881 Z M16.146379,10.4286859 L20.5301317,12.2856532 C20.5437459,12.2991095 20.55736,12.3125658 20.55736,12.3394783 C20.5437459,12.4067598 20.5301317,12.4874975 20.5301317,12.5682352 L20.5301317,12.6355166 L20.5301317,12.6893417 C20.5301317,12.702798 20.5165176,12.7162543 20.5029034,12.7297106 C20.5029034,12.7297106 10.8777072,16.8338775 10.864093,16.8338775 C10.8504789,16.8338775 10.8368647,16.8338775 10.8232506,16.8204212 C10.8096365,16.8069649 10.8096365,16.7800524 10.8232506,16.7665961 L14.4309974,11.1822378 C14.4446116,11.1687815 14.4582257,11.1553253 14.485454,11.1553253 C14.580753,11.1687815 14.6624378,11.1822378 14.7441226,11.1822378 C15.2886882,11.1822378 15.7924113,10.9131121 16.0919224,10.4555984 C16.1055365,10.4421422 16.1191507,10.4286859 16.146379,10.4286859 Z M21.5511429,21.1802433 L25.8123717,22.0549053 C25.8259859,22.0549053 25.8396,22.0683616 25.8396,22.1087307 C25.8396,22.122187 25.8396,22.1356433 25.8259859,22.1490997 L19.9174449,28.0026072 C19.9174449,28.0160636 19.9038307,28.0160636 19.8902166,28.0160636 L19.8629883,28.0160636 C19.8493741,28.0026072 19.83576,27.9891509 19.83576,27.9622382 L20.8568212,21.6915841 C20.8568212,21.6781278 20.8704354,21.6512151 20.8840495,21.6512151 C21.1291042,21.5570208 21.3333165,21.3955447 21.4966863,21.1936996 C21.5103004,21.1936996 21.5239146,21.1802433 21.5511429,21.1802433 Z M19.0461679,20.682403 C19.1550814,21.0995487 19.4545933,21.4628692 19.8630187,21.6243449 C19.8902471,21.6378012 19.8902471,21.6647139 19.8630187,21.6647139 C19.8630187,21.6647139 18.6241283,29.2137054 18.6241283,29.2271617 L18.1884746,29.6577637 C18.1884746,29.6712201 18.1748604,29.6712201 18.1612462,29.6712201 C18.147632,29.6712201 18.147632,29.6712201 18.1340178,29.6577637 L10.9457306,19.2694901 C10.9321165,19.2560338 10.9321165,19.2291212 10.9457306,19.2156649 C10.9865732,19.1618396 11.0138015,19.1080144 11.0546441,19.0407328 C11.0682583,19.0272765 11.0818724,19.0138202 11.1091008,19.0138202 L19.0053254,20.6420341 C19.0325537,20.6554904 19.0461679,20.6689467 19.0461679,20.682403 Z M11.3133647,18.0987286 C11.2861365,18.0987286 11.2725224,18.0852724 11.2725224,18.0583598 C11.2725224,17.9507096 11.2452941,17.8565157 11.23168,17.7488654 C11.23168,17.7219529 11.23168,17.7084966 11.2589082,17.6950403 C11.2589082,17.6950403 20.9385459,13.5639635 20.95216,13.5639635 C20.95216,13.5639635 20.9657741,13.5639635 20.9793882,13.5774197 C21.0474588,13.6447011 21.1019153,13.6850699 21.1563718,13.7254388 C21.1836,13.7254388 21.1836,13.7523513 21.1836,13.7658076 L20.3395247,18.9464741 C20.3395247,18.9733866 20.3259106,18.9868429 20.2986824,18.9868429 C19.8358024,19.0137554 19.4273788,19.282881 19.1959388,19.6865693 C19.1823247,19.7000255 19.1687106,19.7134818 19.1414824,19.7134818 L11.3133647,18.0987286 Z M7.86897758,19.1887291 C7.9098203,19.2560111 7.95066303,19.3098367 7.99150576,19.3636623 C8.00512,19.3771187 8.00512,19.3905751 8.00512,19.3905751 L6.13996879,22.2837007 C6.12635455,22.2971571 6.1127403,22.3106135 6.09912606,22.3106135 C6.09912606,22.3106135 6.08551182,22.3106135 6.07189758,22.2971571 L4.42457424,20.6689329 C4.41096,20.6554765 4.41096,20.6420201 4.41096,20.6285637 C4.41096,20.6151073 4.42457424,20.6016509 4.43818848,20.6016509 L7.81452061,19.1618163 L7.82813485,19.1618163 C7.84174909,19.1618163 7.85536333,19.1752727 7.86897758,19.1887291 Z M10.1833191,19.8615579 C10.1969332,19.8615579 10.2105473,19.8750142 10.2241614,19.8884706 L17.4396294,30.3574878 C17.4532435,30.3709441 17.4532435,30.3978567 17.4396294,30.4113131 L15.8603949,31.9857025 C15.8603949,31.9991589 15.8467808,31.9991589 15.8059386,31.9857025 L6.79341057,23.0641622 C6.77979648,23.0507058 6.77979648,23.0237932 6.80702466,22.9968806 L8.76745371,19.9557522 C8.7810678,19.9422958 8.79468189,19.9288395 8.82191007,19.9288395 C9.02612143,19.9961211 9.2167187,20.0230338 9.42093006,20.0230338 C9.67959778,20.0230338 9.92465141,19.9692085 10.1833191,19.8615579 Z M8.99891856,16.4032322 C8.98530439,16.4032322 8.97169022,16.3897759 8.95807604,16.3763196 L5.09165063,10.7381388 C5.07803646,10.7246825 5.07803646,10.69777 5.09165063,10.6843137 L8.563265,7.23950633 C8.563265,7.22605006 8.57687917,7.22605006 8.60410752,7.22605006 C8.60410752,7.23950633 12.7019739,8.96191002 13.1648558,9.1637542 C13.17847,9.17721048 13.1920842,9.19066676 13.1920842,9.21757932 C13.1648558,9.33868583 13.1512416,9.45979234 13.1512416,9.58089884 C13.1512416,9.99804349 13.3146117,10.3882756 13.6005094,10.6843137 C13.6141235,10.69777 13.6141235,10.7246825 13.6005094,10.7381388 L9.95191074,16.3897759 C9.93829657,16.4032322 9.92468239,16.4166885 9.89745405,16.4166885 C9.74769813,16.3763196 9.58432804,16.3494071 9.43457213,16.3494071 C9.29843039,16.3494071 9.14867448,16.3763196 8.99891856,16.4032322 Z M13.6686019,8.35642034 C13.4916186,8.27568198 9.35293324,6.52635083 9.35293324,6.52635083 C9.33931914,6.51289444 9.32570505,6.51289444 9.33931914,6.48598165 C9.33931914,6.47252526 9.33931914,6.45906886 9.35293324,6.44561247 L15.8332432,0.0134563935 C15.8332432,0 15.8468573,0 15.8604714,0 C15.8740855,0 15.8740855,0 15.8876996,0.0134563935 L18.6785894,2.77201705 C18.6922035,2.78547345 18.6922035,2.81238623 18.6785894,2.82584263 L15.3159076,8.0334669 C15.3022935,8.04692329 15.2886794,8.06037969 15.2614512,8.06037969 C15.0844679,8.00655411 14.9074847,7.97964133 14.7305014,7.97964133 C14.3629208,7.97964133 13.9953402,8.11420526 13.7094442,8.34296395 C13.6958301,8.35642034 13.6958301,8.35642034 13.6686019,8.35642034 Z M7.78728995,17.3317511 C7.77367581,17.3452074 7.76006167,17.3586637 7.74644752,17.3586637 L0.0408424298,15.743908 C0.0136141433,15.743908 0,15.7304517 0,15.7169954 C0,15.7035391 0,15.6900828 0.0136141433,15.6766265 L4.31568342,11.4244363 C4.31568342,11.4109801 4.32929756,11.4109801 4.34291171,11.4109801 C4.37013999,11.4244363 4.37013999,11.4244363 4.38375413,11.4378926 C4.38375413,11.4513489 8.07318696,16.7800429 8.11402939,16.8338681 C8.12764354,16.8473244 8.12764354,16.874237 8.11402939,16.8876933 C7.9915021,17.0222563 7.86897481,17.1702755 7.78728995,17.3317511 Z M7.35155783,18.2467464 C7.37878594,18.2467464 7.3924,18.2602027 7.3924,18.2871151 C7.3924,18.3005713 7.37878594,18.3140275 7.35155783,18.3409399 L3.63492,19.9153165 C3.63492,19.9153165 3.62130594,19.9153165 3.60769188,19.9018603 L0.626213185,16.9414941 C0.612599127,16.9280378 0.598985069,16.9011254 0.612599127,16.8876692 C0.626213185,16.874213 0.639827243,16.8607568 0.667055359,16.8607568 L7.35155783,18.2467464 Z"/></svg>